<svg id="Layer_1" data-name="Layer 1" xmlns="http://www.w3.org/2000/svg" viewBox="0 0 204.99 141.71"><defs><style>.cls-1{fill:#33669a;}.cls-2{fill:#ee1e3a;}</style></defs><path class="cls-1" d="M175.2,77.29a20.15,20.15,0,0,1-3.53.06l-2.91-.06h0c-1.29-5.6-7.19-28.36-28.73-42-15.2-9.61-30.62-9.89-37.46-9.93-5.49,0-17.76,0-30.57,6.11C46.12,43.81,37.91,71.37,36.38,76.89c0,0-1.51.25-2.6.31a8,8,0,0,1-2.89-.27c-2.11-1.53,6.89-33,33.77-48.8,15.44-9.06,30.57-9.3,37.61-9.33,7.19,0,29.41.21,48.46,15.59C171,50.77,177.26,75.91,175.2,77.29Z"/><path d="M168.4,121.38h0V74.77l-.71,0a22.73,22.73,0,0,1,14.55.25,17.94,17.94,0,0,1,6.43,3.84c5.6,5.41,5.31,13.56,5,21.75-.22,6.09-.46,11-4.06,15.17a17.25,17.25,0,0,1-6,4.39A22.87,22.87,0,0,1,168.4,121.38Z"/><path d="M36.75,121.38h0V74.77l.68,0A21.44,21.44,0,0,0,23.31,75a17.2,17.2,0,0,0-6.24,3.84c-5.44,5.41-5.15,13.56-4.87,21.75.22,6.09.46,11,3.95,15.17A16.81,16.81,0,0,0,22,120.15,21.6,21.6,0,0,0,36.75,121.38Z"/><rect class="cls-2" x="154.51" y="90.02" width="5.54" height="13.92"/><rect class="cls-2" x="123.98" y="74.49" width="6.44" height="44.97"/><rect class="cls-2" x="145.59" y="87.4" width="5.54" height="19.51"/><rect class="cls-2" x="112.84" y="78.59" width="6.83" height="37.13"/><rect class="cls-2" x="99.86" y="68.48" width="6.44" height="55.8"/><rect class="cls-2" x="135.52" y="76.75" width="6.18" height="40.21"/><rect class="cls-2" x="87.88" y="78.41" width="6.83" height="37.13"/><rect class="cls-2" x="76.22" y="74.37" width="6.44" height="44.97"/><rect class="cls-2" x="65.92" y="76.75" width="6.18" height="40.21"/><rect class="cls-2" x="55.93" y="87.4" width="5.54" height="19.51"/><rect class="cls-2" x="46.53" y="90.02" width="5.54" height="13.92"/><rect class="cls-2" x="38.87" y="93.14" width="5.54" height="8.03"/><rect class="cls-2" x="162.15" y="93.14" width="5.54" height="8.03"/></svg>